<svg width="20" height="21" viewBox="0 0 20 21" fill="none" xmlns="http://www.w3.org/2000/svg">
<path d="M18.5745 11.844H11.595V18.8236C11.595 19.1938 11.4479 19.5488 11.1861 19.8106C10.9244 20.0724 10.5693 20.2195 10.1991 20.2195C9.82887 20.2195 9.47382 20.0724 9.21203 19.8106C8.95025 19.5488 8.80318 19.1938 8.80318 18.8236V11.844H1.82364C1.45342 11.844 1.09837 11.6969 0.836587 11.4352C0.574803 11.1734 0.427734 10.8183 0.427734 10.4481C0.427734 10.0779 0.574803 9.72284 0.836587 9.46106C1.09837 9.19927 1.45342 9.0522 1.82364 9.0522H8.80318V2.07267C8.80318 1.70245 8.95025 1.34739 9.21203 1.08561C9.47382 0.823826 9.82887 0.676758 10.1991 0.676758C10.5693 0.676758 10.9244 0.823826 11.1861 1.08561C11.4479 1.34739 11.595 1.70245 11.595 2.07267V9.0522H18.5745C18.9448 9.0522 19.2998 9.19927 19.5616 9.46106C19.8234 9.72284 19.9704 10.0779 19.9704 10.4481C19.9704 10.8183 19.8234 11.1734 19.5616 11.4352C19.2998 11.6969 18.9448 11.844 18.5745 11.844Z" fill="white"/>
</svg>
