<svg width="73" height="75" viewBox="0 0 73 75" fill="none" xmlns="http://www.w3.org/2000/svg">
<path d="M33.3883 5.51849V2.75924C33.3883 2.02745 33.679 1.32562 34.1964 0.808164C34.7139 0.290705 35.4157 0 36.1475 0C36.8793 0 37.5811 0.290705 38.0986 0.808164C38.616 1.32562 38.9067 2.02745 38.9067 2.75924V5.51849C38.9067 6.25028 38.616 6.95211 38.0986 7.46956C37.5811 7.98702 36.8793 8.27773 36.1475 8.27773C35.4157 8.27773 34.7139 7.98702 34.1964 7.46956C33.679 6.95211 33.3883 6.25028 33.3883 5.51849ZM60.9807 16.5555C61.3431 16.5557 61.7021 16.4846 62.0371 16.3461C62.372 16.2076 62.6764 16.0045 62.9329 15.7484L65.6921 12.9891C66.2098 12.4714 66.5007 11.7692 66.5007 11.037C66.5007 10.3048 66.2098 9.60255 65.6921 9.08481C65.1744 8.56706 64.4721 8.27619 63.7399 8.27619C63.0077 8.27619 62.3055 8.56706 61.7878 9.08481L59.0285 11.844C58.6422 12.2299 58.3791 12.7218 58.2724 13.2573C58.1658 13.7928 58.2204 14.348 58.4294 14.8524C58.6385 15.3569 58.9924 15.788 59.4466 16.0911C59.9008 16.3943 60.4346 16.5559 60.9807 16.5555ZM9.36215 15.7484C9.61851 16.0047 9.92286 16.2081 10.2578 16.3468C10.5928 16.4856 10.9518 16.557 11.3143 16.557C11.6769 16.557 12.0359 16.4856 12.3708 16.3468C12.7058 16.2081 13.0101 16.0047 13.2665 15.7484C13.5228 15.492 13.7262 15.1877 13.8649 14.8527C14.0037 14.5178 14.0751 14.1588 14.0751 13.7962C14.0751 13.4337 14.0037 13.0747 13.8649 12.7397C13.7262 12.4048 13.5228 12.1004 13.2665 11.844L10.5072 9.08481C9.98949 8.56706 9.28728 8.27619 8.55507 8.27619C7.82287 8.27619 7.12065 8.56706 6.60291 9.08481C6.08516 9.60255 5.7943 10.3048 5.7943 11.037C5.7943 11.7692 6.08516 12.4714 6.60291 12.9891L9.36215 15.7484ZM72.0177 60.7033V68.9811C72.0177 70.4447 71.4362 71.8483 70.4013 72.8832C69.3664 73.9181 67.9628 74.4996 66.4992 74.4996H5.79583C4.33224 74.4996 2.92859 73.9181 1.89367 72.8832C0.858754 71.8483 0.277344 70.4447 0.277344 68.9811V60.7033C0.277344 59.2397 0.858754 57.8361 1.89367 56.8012C2.92859 55.7663 4.33224 55.1849 5.79583 55.1849V44.1479C5.79571 40.1425 6.58837 36.1768 8.12812 32.4792C9.66786 28.7816 11.9242 25.4254 14.7672 22.6039C17.6101 19.7824 20.9834 17.5516 24.6925 16.0399C28.4017 14.5283 32.3733 13.7657 36.3786 13.7962C52.9858 13.9204 66.4992 27.6925 66.4992 44.4928V55.1849C67.9628 55.1849 69.3664 55.7663 70.4013 56.8012C71.4362 57.8361 72.0177 59.2397 72.0177 60.7033ZM38.4515 30.3137C45.0012 31.414 49.9437 37.3601 49.9437 44.1479C49.9437 44.8797 50.2344 45.5815 50.7519 46.099C51.2693 46.6164 51.9712 46.9071 52.703 46.9071C53.4348 46.9071 54.1366 46.6164 54.654 46.099C55.1715 45.5815 55.4622 44.8797 55.4622 44.1479C55.4622 34.6975 48.54 26.4094 39.362 24.8711C39.0031 24.8076 38.6351 24.8159 38.2794 24.8955C37.9237 24.975 37.5873 25.1242 37.2896 25.3345C36.9918 25.5448 36.7387 25.812 36.5449 26.1207C36.351 26.4294 36.2202 26.7734 36.1601 27.1329C36.1 27.4924 36.1116 27.8603 36.1945 28.2152C36.2773 28.5702 36.4296 28.9052 36.6427 29.201C36.8557 29.4967 37.1253 29.7474 37.4357 29.9383C37.7462 30.1293 38.0914 30.2569 38.4515 30.3137ZM66.4992 68.9811V60.7033H5.79583V68.9811H66.4992Z" fill="#2F90B0"/>
</svg>
