<svg width="36" height="36" viewBox="0 0 36 36" fill="none" xmlns="http://www.w3.org/2000/svg">
<path d="M18 0.9375C14.6254 0.9375 11.3265 1.9382 8.52059 3.81305C5.71468 5.6879 3.52773 8.3527 2.23631 11.4705C0.944893 14.5882 0.606999 18.0189 1.26536 21.3287C1.92372 24.6385 3.54876 27.6788 5.935 30.065C8.32123 32.4512 11.3615 34.0763 14.6713 34.7346C17.9811 35.393 21.4118 35.0551 24.5295 33.7637C27.6473 32.4723 30.3121 30.2853 32.187 27.4794C34.0618 24.6735 35.0625 21.3746 35.0625 18C35.0577 13.4762 33.2585 9.13907 30.0597 5.94027C26.8609 2.74146 22.5238 0.942277 18 0.9375ZM24.5625 19.3125H14.6056L17.6161 22.3214C17.738 22.4433 17.8348 22.5881 17.9008 22.7474C17.9668 22.9068 18.0007 23.0775 18.0007 23.25C18.0007 23.4225 17.9668 23.5932 17.9008 23.7526C17.8348 23.9119 17.738 24.0567 17.6161 24.1786C17.4942 24.3005 17.3494 24.3973 17.1901 24.4633C17.0307 24.5293 16.86 24.5632 16.6875 24.5632C16.5151 24.5632 16.3443 24.5293 16.185 24.4633C16.0256 24.3973 15.8809 24.3005 15.7589 24.1786L10.5089 18.9286C10.3869 18.8067 10.2901 18.6619 10.224 18.5026C10.158 18.3433 10.124 18.1725 10.124 18C10.124 17.8275 10.158 17.6567 10.224 17.4974C10.2901 17.3381 10.3869 17.1933 10.5089 17.0714L15.7589 11.8214C16.0052 11.5751 16.3392 11.4368 16.6875 11.4368C17.0358 11.4368 17.3698 11.5751 17.6161 11.8214C17.8624 12.0677 18.0007 12.4017 18.0007 12.75C18.0007 13.0983 17.8624 13.4323 17.6161 13.6786L14.6056 16.6875H24.5625C24.9106 16.6875 25.2444 16.8258 25.4906 17.0719C25.7367 17.3181 25.875 17.6519 25.875 18C25.875 18.3481 25.7367 18.6819 25.4906 18.9281C25.2444 19.1742 24.9106 19.3125 24.5625 19.3125Z" fill="#2F90B0"/>
</svg>
