<svg width="73" height="73" viewBox="0 0 73 73" fill="none" xmlns="http://www.w3.org/2000/svg">
<path d="M66.5033 36.8952C66.5171 36.3985 66.5171 35.9018 66.5033 35.4051L71.6495 28.9758C71.9193 28.6382 72.1061 28.242 72.1948 27.819C72.2834 27.396 72.2715 26.9581 72.16 26.5406C71.3148 23.3699 70.0529 20.3253 68.4072 17.4864C68.1916 17.115 67.8922 16.799 67.5329 16.5637C67.1736 16.3284 66.7644 16.1802 66.3377 16.1309L58.1562 15.2203C57.8158 14.8616 57.4709 14.5166 57.1214 14.1855L56.1556 5.98326C56.1059 5.55629 55.9572 5.14683 55.7212 4.78752C55.4853 4.42821 55.1687 4.129 54.7966 3.91373C51.9579 2.26931 48.9132 1.00965 45.7424 0.167877C45.3249 0.0563298 44.887 0.04441 44.464 0.133078C44.0411 0.221746 43.6448 0.408523 43.3073 0.678361L36.8952 5.797C36.3985 5.797 35.9018 5.797 35.4051 5.797L28.9758 0.661115C28.6382 0.391277 28.242 0.2045 27.819 0.115832C27.396 0.0271642 26.9581 0.0390833 26.5406 0.150631C23.3699 0.995783 20.3253 2.2577 17.4864 3.90338C17.115 4.11905 16.799 4.41844 16.5637 4.77772C16.3284 5.137 16.1802 5.54626 16.1309 5.97291L15.2203 14.1683C14.8616 14.5109 14.5166 14.8558 14.1855 15.203L5.98326 16.1447C5.55629 16.1943 5.14683 16.3431 4.78752 16.579C4.42821 16.815 4.129 17.1316 3.91373 17.5037C2.26965 20.3429 1.00892 23.3875 0.164428 26.5579C0.0533522 26.9756 0.0419915 27.4137 0.131261 27.8367C0.220531 28.2596 0.407933 28.6557 0.678361 28.993L5.797 35.4051C5.797 35.9018 5.797 36.3985 5.797 36.8952L0.661115 43.3245C0.391277 43.6621 0.2045 44.0583 0.115832 44.4813C0.0271642 44.9042 0.0390833 45.3421 0.150631 45.7597C0.995783 48.9304 2.2577 51.975 3.90338 54.8139C4.11905 55.1853 4.41844 55.5012 4.77772 55.7366C5.137 55.9719 5.54626 56.1201 5.97291 56.1694L14.1545 57.08C14.4971 57.4387 14.842 57.7836 15.1892 58.1148L16.1447 66.317C16.1943 66.744 16.3431 67.1534 16.579 67.5127C16.815 67.872 17.1316 68.1713 17.5037 68.3865C20.3429 70.0306 23.3875 71.2914 26.5579 72.1358C26.9756 72.2469 27.4137 72.2583 27.8367 72.169C28.2596 72.0797 28.6557 71.8923 28.993 71.6219L35.4051 66.5033C35.9018 66.5171 36.3985 66.5171 36.8952 66.5033L43.3245 71.6495C43.6621 71.9193 44.0583 72.1061 44.4813 72.1948C44.9042 72.2834 45.3421 72.2715 45.7597 72.16C48.9309 71.3163 51.9757 70.0543 54.8139 68.4072C55.1853 68.1916 55.5012 67.8922 55.7366 67.5329C55.9719 67.1736 56.1201 66.7644 56.1694 66.3377L57.08 58.1562C57.4387 57.8158 57.7836 57.4709 58.1148 57.1214L66.317 56.1556C66.744 56.1059 67.1534 55.9572 67.5127 55.7212C67.872 55.4853 68.1713 55.1687 68.3865 54.7966C70.0306 51.9573 71.2914 48.9128 72.1358 45.7424C72.2469 45.3246 72.2583 44.8866 72.169 44.4636C72.0797 44.0406 71.8923 43.6445 71.6219 43.3073L66.5033 36.8952ZM36.1501 49.947C33.4214 49.947 30.7539 49.1378 28.485 47.6218C26.2161 46.1058 24.4477 43.951 23.4035 41.43C22.3592 38.9089 22.086 36.1348 22.6184 33.4585C23.1507 30.7822 24.4647 28.3238 26.3943 26.3943C28.3238 24.4647 30.7822 23.1507 33.4585 22.6184C36.1348 22.086 38.9089 22.3592 41.43 23.4035C43.951 24.4477 46.1058 26.2161 47.6218 28.485C49.1378 30.7539 49.947 33.4214 49.947 36.1501C49.947 39.8093 48.4934 43.3186 45.906 45.906C43.3186 48.4934 39.8093 49.947 36.1501 49.947Z" fill="#2F90B0"/>
</svg>
