<svg width="11" height="8" viewBox="0 0 11 8" fill="none" xmlns="http://www.w3.org/2000/svg">
<path d="M8.69353 0.866211C8.93122 0.867435 9.16515 0.910167 9.37625 0.990921C9.58734 1.07167 9.76962 1.18816 9.90822 1.33089C10.0468 1.47361 10.1378 1.63853 10.1738 1.81219C10.2098 1.98585 10.1897 2.16334 10.1152 2.33017L10.081 2.39891L10.0498 2.44573L6.48562 6.99106C6.35983 7.1593 6.17731 7.30063 5.95579 7.40134C5.73428 7.50204 5.48129 7.5587 5.2214 7.56581C4.96151 7.57291 4.70356 7.53022 4.47258 7.44188C4.2416 7.35355 4.04546 7.22257 3.90319 7.06166L3.85141 6.99738L0.282158 2.44573L0.251493 2.39928C0.16096 2.23454 0.12506 2.05619 0.14679 1.87911C0.16852 1.70203 0.247249 1.53135 0.376405 1.38134C0.50556 1.23133 0.681395 1.10634 0.889228 1.01679C1.09706 0.927239 1.33086 0.875737 1.57111 0.866582L1.60027 0.866211L1.63043 0.866954L1.65205 0.866211H8.69353Z" fill="white"/>
</svg>
