<svg width="23" height="13" viewBox="0 0 23 13" fill="none" xmlns="http://www.w3.org/2000/svg">
<path d="M22.404 1.01789C22.3284 0.835151 22.2002 0.678948 22.0358 0.569034C21.8714 0.45912 21.6781 0.400432 21.4803 0.400391H1.48028C1.28238 0.400235 1.08889 0.4588 0.924298 0.568671C0.759704 0.678541 0.63141 0.834777 0.555657 1.0176C0.479905 1.20042 0.4601 1.40161 0.49875 1.5957C0.537401 1.78978 0.632768 1.96804 0.77278 2.10789L10.7728 12.1079C10.8657 12.2009 10.9759 12.2746 11.0973 12.325C11.2187 12.3753 11.3489 12.4012 11.4803 12.4012C11.6117 12.4012 11.7418 12.3753 11.8632 12.325C11.9846 12.2746 12.0949 12.2009 12.1878 12.1079L22.1878 2.10789C22.3276 1.96796 22.4228 1.78972 22.4612 1.59569C22.4997 1.40167 22.4798 1.20059 22.404 1.01789Z" fill="#2F90B0"/>
</svg>
