<svg width="24" height="24" viewBox="0 0 24 24" fill="none" xmlns="http://www.w3.org/2000/svg">
<path d="M23.0789 12.1166C23.0789 14.2701 22.4403 16.3752 21.2439 18.1657C20.0475 19.9562 18.347 21.3518 16.3575 22.1759C14.368 23 12.1787 23.2156 10.0667 22.7955C7.95458 22.3753 6.01451 21.3384 4.49178 19.8156C2.96906 18.2929 1.93207 16.3528 1.51195 14.2408C1.09183 12.1287 1.30745 9.93944 2.13154 7.94991C2.95564 5.96037 4.35119 4.25989 6.14173 3.06349C7.93226 1.86709 10.0374 1.22852 12.1908 1.22852" stroke="white" stroke-width="2.01011" stroke-linecap="round" stroke-linejoin="round"/>
<path d="M18.0525 1.22852L9.67704 9.60396L8.00195 16.3043L14.7023 14.6292L23.0778 6.25378" stroke="white" stroke-width="2.01011" stroke-linecap="round" stroke-linejoin="round"/>
</svg>
