<svg width="73" height="73" viewBox="0 0 73 73" fill="none" xmlns="http://www.w3.org/2000/svg">
<path d="M36.1502 0.27832C29.0554 0.27832 22.12 2.38217 16.2209 6.32382C10.3218 10.2655 5.72398 15.8679 3.00892 22.4226C0.293863 28.9774 -0.41652 36.19 0.967605 43.1485C2.35173 50.1069 5.76819 56.4987 10.785 61.5154C15.8017 66.5322 22.1935 69.9487 29.152 71.3328C36.1104 72.7169 43.3231 72.0065 49.8778 69.2915C56.4325 66.5764 62.0349 61.9786 65.9766 56.0795C69.9182 50.1804 72.0221 43.245 72.0221 36.1502C72.012 26.6395 68.2295 17.5211 61.5044 10.796C54.7793 4.07094 45.6609 0.288364 36.1502 0.27832ZM36.1502 58.2252C35.3316 58.2252 34.5313 57.9824 33.8507 57.5276C33.17 57.0728 32.6395 56.4264 32.3262 55.6701C32.0129 54.9138 31.931 54.0815 32.0907 53.2786C32.2504 52.4757 32.6446 51.7382 33.2235 51.1594C33.8023 50.5805 34.5398 50.1863 35.3427 50.0266C36.1456 49.8669 36.9778 49.9489 37.7342 50.2621C38.4905 50.5754 39.1369 51.1059 39.5917 51.7866C40.0465 52.4673 40.2893 53.2675 40.2893 54.0861C40.2893 55.1839 39.8532 56.2367 39.077 57.0129C38.3007 57.7891 37.248 58.2252 36.1502 58.2252ZM38.9096 41.4206V41.6689C38.9096 42.4008 38.6189 43.1026 38.1014 43.6201C37.5839 44.1376 36.882 44.4283 36.1502 44.4283C35.4184 44.4283 34.7165 44.1376 34.199 43.6201C33.6816 43.1026 33.3908 42.4008 33.3908 41.6689V38.9096C33.3908 38.1777 33.6816 37.4759 34.199 36.9584C34.7165 36.4409 35.4184 36.1502 36.1502 36.1502C40.7135 36.1502 44.4283 33.0459 44.4283 29.2518C44.4283 25.4576 40.7135 22.3533 36.1502 22.3533C31.5869 22.3533 27.8721 25.4576 27.8721 29.2518V30.6314C27.8721 31.3633 27.5814 32.0651 27.0639 32.5826C26.5464 33.1001 25.8445 33.3908 25.1127 33.3908C24.3809 33.3908 23.679 33.1001 23.1615 32.5826C22.6441 32.0651 22.3533 31.3633 22.3533 30.6314V29.2518C22.3533 22.4051 28.5412 16.8346 36.1502 16.8346C43.7592 16.8346 49.9471 22.4051 49.9471 29.2518C49.9471 35.2465 45.201 40.2651 38.9096 41.4206Z" fill="#2F90B0"/>
</svg>
