<svg width="70" height="78" viewBox="0 0 70 78" fill="none" xmlns="http://www.w3.org/2000/svg">
<path d="M58.3973 54.1261C61.8866 51.1956 64.6741 47.5198 66.5545 43.3692C68.4348 39.2187 69.3602 34.6992 69.2623 30.1436C69.2623 29.8907 69.252 29.6389 69.2313 29.3883C69.2093 29.0375 69.0543 28.7083 68.7979 28.468C68.5415 28.2276 68.203 28.0941 67.8516 28.0948H59.5183L51.5402 37.6664C52.5367 39.3458 52.9074 41.3235 52.5868 43.2499C52.2661 45.1762 51.2747 46.9272 49.7879 48.1932C48.3011 49.4593 46.4146 50.159 44.4617 50.1686C42.5089 50.1782 40.6156 49.4972 39.1164 48.2458C37.6171 46.9944 36.6086 45.2533 36.269 43.3302C35.9294 41.4071 36.2806 39.4259 37.2605 37.7367C38.2404 36.0475 39.786 34.7591 41.624 34.0993C43.462 33.4395 45.474 33.4507 47.3046 34.1309L56.1035 23.5694C56.3643 23.2615 56.6893 23.0146 57.0558 22.8459C57.4223 22.6773 57.8214 22.591 58.2248 22.5933H66.2063C66.4277 22.5936 66.6459 22.5405 66.8424 22.4387C67.039 22.3369 67.2082 22.1893 67.3357 22.0083C67.4632 21.8274 67.5453 21.6184 67.5751 21.399C67.6048 21.1797 67.5814 20.9564 67.5066 20.748C63.4918 9.48627 53.0027 1.20814 40.5441 0.545892H40.3406C40.1551 0.538932 39.9701 0.569472 39.7967 0.635684C39.6233 0.701896 39.465 0.80242 39.3314 0.931235C39.1977 1.06005 39.0915 1.21451 39.0189 1.38537C38.9464 1.55622 38.909 1.73996 38.9092 1.92558V12.0145C40.7503 12.6655 42.302 13.9463 43.29 15.6307C44.2781 17.315 44.6389 19.2944 44.3087 21.2191C43.9785 23.1437 42.9785 24.8897 41.4855 26.1484C39.9925 27.407 38.1026 28.0974 36.1498 28.0974C34.197 28.0974 32.3071 27.407 30.8141 26.1484C29.3211 24.8897 28.3211 23.1437 27.9909 21.2191C27.6607 19.2944 28.0215 17.315 29.0096 15.6307C29.9976 13.9463 31.5493 12.6655 33.3904 12.0145V2.70165C33.391 2.49409 33.3446 2.28907 33.2549 2.10189C33.1652 1.9147 33.0345 1.75017 32.8724 1.62054C32.7102 1.49091 32.521 1.39954 32.3186 1.35322C32.1163 1.3069 31.9061 1.30682 31.7038 1.35301C25.2137 2.9469 19.4295 6.63438 15.2454 11.8453C11.0613 17.0563 8.71037 23.5005 8.55605 30.1816L0.812549 45.0615L0.736666 45.2167C0.172264 46.5122 0.126291 47.9748 0.608221 49.3032C1.09015 50.6315 2.06326 51.7244 3.32703 52.3566L3.41326 52.398L11.3154 56.0162V66.7088C11.3154 68.1725 11.8969 69.5762 12.9318 70.6112C13.9668 71.6461 15.3705 72.2276 16.8342 72.2276H30.631V74.9869C30.631 75.7188 30.9218 76.4206 31.4392 76.9381C31.9567 77.4556 32.6586 77.7463 33.3904 77.7463H58.1455C58.634 77.7526 59.1161 77.6338 59.5459 77.4014C60.0315 77.1365 60.4264 76.7318 60.6792 76.2398C60.9319 75.7477 61.031 75.1911 60.9635 74.642L58.3973 54.1261Z" fill="#2F90B0"/>
</svg>
