<svg width="50" height="50" viewBox="0 0 50 50" fill="none" xmlns="http://www.w3.org/2000/svg">
<path d="M14.583 31.25C16.3191 31.25 17.7948 30.6424 19.0101 29.4271C20.2254 28.2118 20.833 26.7361 20.833 25C20.833 23.2639 20.2254 21.7882 19.0101 20.5729C17.7948 19.3576 16.3191 18.75 14.583 18.75C12.8469 18.75 11.3712 19.3576 10.1559 20.5729C8.94065 21.7882 8.33301 23.2639 8.33301 25C8.33301 26.7361 8.94065 28.2118 10.1559 29.4271C11.3712 30.6424 12.8469 31.25 14.583 31.25ZM14.583 37.5C11.1108 37.5 8.1594 36.2847 5.72884 33.8542C3.29829 31.4236 2.08301 28.4722 2.08301 25C2.08301 21.5278 3.29829 18.5764 5.72884 16.1458C8.1594 13.7153 11.1108 12.5 14.583 12.5C17.3955 12.5 19.8525 13.2986 21.9538 14.8958C24.0552 16.4931 25.5219 18.4722 26.3538 20.8333H42.9163C43.1941 20.8333 43.4636 20.8854 43.7247 20.9896C43.9858 21.0937 44.2024 21.2326 44.3747 21.4062L46.4059 23.4375C46.6143 23.6458 46.7705 23.8799 46.8747 24.1396C46.9788 24.3993 47.0309 24.6688 47.0309 24.9479C47.0309 25.2257 46.9879 25.4861 46.9018 25.7292C46.8156 25.9722 46.6677 26.1979 46.458 26.4062L41.0413 31.8229C40.833 32.0312 40.6073 32.1875 40.3643 32.2917C40.1212 32.3958 39.8608 32.4479 39.583 32.4479C39.3052 32.4479 39.0448 32.4042 38.8018 32.3167C38.5587 32.2292 38.333 32.0819 38.1247 31.875L35.4163 29.1667L32.708 31.875C32.4997 32.0833 32.274 32.2306 32.0309 32.3167C31.7879 32.4028 31.5275 32.4465 31.2497 32.4479C30.9719 32.4479 30.7115 32.4042 30.4684 32.3167C30.2254 32.2292 29.9997 32.0819 29.7913 31.875L27.083 29.1667H26.3538C25.4858 31.6667 23.9754 33.6806 21.8226 35.2083C19.6698 36.7361 17.2566 37.5 14.583 37.5Z" fill="white"/>
</svg>
