<svg width="11" height="8" viewBox="0 0 11 8" fill="none" xmlns="http://www.w3.org/2000/svg">
<path d="M1.6385 7.51562C1.40081 7.5144 1.16688 7.47167 0.955785 7.39092C0.74469 7.31016 0.562408 7.19367 0.423807 7.05095C0.285206 6.90822 0.19421 6.74331 0.15824 6.56965C0.122271 6.39599 0.142346 6.2185 0.216829 6.05167L0.251013 5.98293L0.282182 5.93611L3.84641 1.39077C3.9722 1.22254 4.15472 1.0812 4.37624 0.980498C4.59776 0.879792 4.85074 0.823135 5.11063 0.816031C5.37052 0.808926 5.62847 0.851615 5.85945 0.939951C6.09043 1.02829 6.28657 1.15927 6.42884 1.32018L6.48062 1.38446L10.0499 5.93611L10.0805 5.98255C10.1711 6.14729 10.207 6.32565 10.1852 6.50273C10.1635 6.67981 10.0848 6.85048 9.95563 7.00049C9.82647 7.1505 9.65064 7.2755 9.4428 7.36505C9.23497 7.4546 9.00117 7.5061 8.76092 7.51525L8.73176 7.51562L8.7016 7.51488L8.67998 7.51562H1.6385Z" fill="white"/>
</svg>
