<svg width="34" height="34" viewBox="0 0 34 34" fill="none" xmlns="http://www.w3.org/2000/svg">
<path d="M16.9997 0.333008C19.2098 0.333008 21.3294 1.21098 22.8922 2.77378C24.455 4.33659 25.333 6.4562 25.333 8.66634C25.333 10.8765 24.455 12.9961 22.8922 14.5589C21.3294 16.1217 19.2098 16.9997 16.9997 16.9997C14.7895 16.9997 12.6699 16.1217 11.1071 14.5589C9.54431 12.9961 8.66634 10.8765 8.66634 8.66634C8.66634 6.4562 9.54431 4.33659 11.1071 2.77378C12.6699 1.21098 14.7895 0.333008 16.9997 0.333008ZM16.9997 21.1663C26.208 21.1663 33.6663 24.8955 33.6663 29.4997V33.6663H0.333008V29.4997C0.333008 24.8955 7.79134 21.1663 16.9997 21.1663Z" fill="white"/>
</svg>
