<svg width="15" height="14" viewBox="0 0 15 14" fill="none" xmlns="http://www.w3.org/2000/svg">
<path d="M1.54837 13.5765C1.23196 13.5765 0.966556 13.4693 0.752145 13.2549C0.537734 13.0405 0.4309 12.7754 0.431644 12.4598V1.29251C0.431644 0.976105 0.53885 0.710697 0.753262 0.496286C0.967673 0.281874 1.23271 0.175041 1.54837 0.175785C1.86478 0.175785 2.13018 0.282991 2.3446 0.497402C2.55901 0.711814 2.66584 0.97685 2.6651 1.29251V12.4598C2.6651 12.7762 2.55789 13.0416 2.34348 13.256C2.12907 13.4704 1.86403 13.5772 1.54837 13.5765ZM13.2182 12.4319L6.29446 7.79744C5.95944 7.57409 5.79193 7.267 5.79193 6.87614C5.79193 6.48529 5.95944 6.17819 6.29446 5.95484L13.2182 1.32043C13.5904 1.07847 13.9719 1.0647 14.3628 1.27911C14.7537 1.49352 14.9491 1.8237 14.9491 2.26965V11.4826C14.9491 11.9293 14.7537 12.2643 14.3628 12.4877C13.9719 12.711 13.5904 12.6924 13.2182 12.4319Z" fill="white"/>
</svg>
