<svg width="16" height="14" viewBox="0 0 16 14" fill="none" xmlns="http://www.w3.org/2000/svg">
<path d="M14.0101 13.5765C13.6937 13.5765 13.4283 13.4693 13.2139 13.2549C12.9995 13.0405 12.8926 12.7754 12.8934 12.4598V1.29251C12.8934 0.976105 13.0006 0.710697 13.215 0.496286C13.4294 0.281874 13.6944 0.175041 14.0101 0.175785C14.3265 0.175785 14.5919 0.282991 14.8063 0.497402C15.0207 0.711814 15.1276 0.97685 15.1268 1.29251V12.4598C15.1268 12.7762 15.0196 13.0416 14.8052 13.256C14.5908 13.4704 14.3258 13.5772 14.0101 13.5765ZM2.3403 12.4319C1.96806 12.6924 1.58651 12.711 1.19566 12.4877C0.804802 12.2643 0.609375 11.9293 0.609375 11.4826V2.26965C0.609375 1.82296 0.804802 1.49241 1.19566 1.27799C1.58651 1.06358 1.96806 1.07773 2.3403 1.32043L9.264 5.95484C9.59902 6.17819 9.76653 6.48529 9.76653 6.87614C9.76653 7.267 9.59902 7.57409 9.264 7.79744L2.3403 12.4319Z" fill="white"/>
</svg>
