<svg width="89" height="89" viewBox="0 0 89 89" fill="none" xmlns="http://www.w3.org/2000/svg">
<g clip-path="url(#clip0_14_1355)">
<path d="M73.696 28.4011L54.3804 9.08544C54.1239 8.82927 53.8195 8.62615 53.4846 8.48766C53.1496 8.34917 52.7906 8.27804 52.4281 8.27832H19.3156C17.852 8.27832 16.4482 8.85976 15.4133 9.89473C14.3783 10.9297 13.7969 12.3334 13.7969 13.7971V74.5033C13.7969 75.967 14.3783 77.3707 15.4133 78.4057C16.4482 79.4406 17.852 80.0221 19.3156 80.0221H68.9844C70.448 80.0221 71.8518 79.4406 72.8867 78.4057C73.9217 77.3707 74.5031 75.967 74.5031 74.5033V30.3533C74.5034 29.9908 74.4323 29.6319 74.2938 29.2969C74.1553 28.9619 73.9522 28.6575 73.696 28.4011ZM55.1875 60.7064H33.1125C32.3807 60.7064 31.6788 60.4157 31.1613 59.8982C30.6438 59.3808 30.3531 58.6789 30.3531 57.9471C30.3531 57.2152 30.6438 56.5134 31.1613 55.9959C31.6788 55.4784 32.3807 55.1877 33.1125 55.1877H55.1875C55.9193 55.1877 56.6212 55.4784 57.1387 55.9959C57.6562 56.5134 57.9469 57.2152 57.9469 57.9471C57.9469 58.6789 57.6562 59.3808 57.1387 59.8982C56.6212 60.4157 55.9193 60.7064 55.1875 60.7064ZM55.1875 49.6689H33.1125C32.3807 49.6689 31.6788 49.3782 31.1613 48.8607C30.6438 48.3433 30.3531 47.6414 30.3531 46.9096C30.3531 46.1777 30.6438 45.4759 31.1613 44.9584C31.6788 44.4409 32.3807 44.1502 33.1125 44.1502H55.1875C55.9193 44.1502 56.6212 44.4409 57.1387 44.9584C57.6562 45.4759 57.9469 46.1777 57.9469 46.9096C57.9469 47.6414 57.6562 48.3433 57.1387 48.8607C56.6212 49.3782 55.9193 49.6689 55.1875 49.6689ZM52.4281 30.3533V15.1768L67.6047 30.3533H52.4281Z" fill="#2F90B0"/>
</g>
<defs>
<clipPath id="clip0_14_1355">
<rect width="88.3" height="88.3" fill="white"/>
</clipPath>
</defs>
</svg>
